<svg width="964" height="284" viewBox="0 0 964 284" fill="none" xmlns="http://www.w3.org/2000/svg">
<g clip-path="url(#clip0_503_49731)">
<path d="M866.894 87.272H841.989V209.269H866.894V87.272Z" fill="white"/>
<path d="M712.946 249.15L754.567 182.427H776.509C782.2 182.427 786.801 177.66 786.801 171.771V170.54C786.801 167.939 784.774 166.661 782.263 166.661H772.703C770.099 166.661 767.573 164.48 770.162 160.617L789.187 134.039C790.855 131.702 794.224 131.687 795.924 133.993C797.078 135.566 797.701 137.498 797.701 139.476L797.436 208.973H822.247V140.878C822.247 136.096 821.171 131.36 819.112 127.06L803.674 94.7653C800.056 87.1785 789.998 86.1815 785.039 92.9115L681.757 248.667L712.946 249.119V249.15Z" fill="white"/>
<path d="M341.736 236.469C341.736 228.696 347.459 222.963 355.569 222.963C362.524 222.963 367.763 227.169 369.089 233.322H362.29C361.261 230.658 358.828 228.914 355.569 228.914C351.155 228.914 348.255 232.092 348.255 236.454C348.255 240.816 351.155 243.994 355.569 243.994C358.828 243.994 361.245 242.249 362.29 239.585H369.089C367.779 245.739 362.524 249.945 355.569 249.945C347.459 249.945 341.736 244.228 341.736 236.438V236.469Z" fill="white"/>
<path d="M371.584 236.469C371.584 228.696 377.307 222.963 385.416 222.963C393.525 222.963 399.248 228.68 399.248 236.469C399.248 244.259 393.525 249.976 385.416 249.976C377.307 249.976 371.584 244.259 371.584 236.469ZM392.73 236.469C392.73 232.107 389.829 228.929 385.416 228.929C381.003 228.929 378.102 232.107 378.102 236.469C378.102 240.831 381.003 244.009 385.416 244.009C389.829 244.009 392.73 240.831 392.73 236.469Z" fill="white"/>
<path d="M418.445 238.744C418.211 239.928 417.868 240.535 417.4 240.535H417.213C417.026 240.411 416.761 240.348 416.402 240.348H415.217L414.983 240.208H410.117C409.774 240.208 409.431 240.193 409.104 240.146L406.702 240.255C406.203 240.224 405.72 240.193 405.221 240.193H402.819C402.57 240.193 402.398 240.068 402.32 239.803C402.351 239.803 402.195 239.694 401.852 239.46C401.977 238.759 402.039 238.401 402.039 238.386L401.962 237.996C402.071 237.653 402.117 237.404 402.117 237.217V236.641C402.008 235.581 401.962 234.989 401.962 234.849C401.962 234.538 401.899 234.382 401.774 234.382L401.962 234.725V234.101L401.806 233.914V233.712C401.806 233.369 401.993 233.198 402.351 233.198H402.585C402.819 233.198 402.975 233.213 403.053 233.26C404.379 233.135 405.829 233.073 407.404 233.073C407.404 233.167 407.326 233.213 407.17 233.213H407.154L407.388 233.073H410.632L410.866 233.213H412.909L413.47 233.12C413.579 233.182 413.689 233.213 413.782 233.213H414.406C414.297 233.213 414.25 233.167 414.25 233.058L415.061 233.213H416.09L416.324 233.073H417.369C417.743 233.229 418.024 233.478 418.211 233.837V234.179C418.211 234.335 418.242 234.444 418.32 234.522C418.242 234.865 418.211 235.114 418.211 235.239V236.033L418.367 236.22V236.874L418.211 237.092V236.874L418.367 237.061V238.51C418.367 238.51 418.398 238.604 418.476 238.697L418.445 238.744Z" fill="white"/>
<path d="M420.114 236.469C420.114 228.696 425.837 222.963 433.946 222.963C440.902 222.963 446.141 227.169 447.467 233.322H440.668C439.638 230.658 437.206 228.914 433.946 228.914C429.533 228.914 426.633 232.092 426.633 236.454C426.633 240.816 429.533 243.994 433.946 243.994C437.206 243.994 439.623 242.249 440.668 239.585H447.467C446.157 245.739 440.902 249.945 433.946 249.945C425.837 249.945 420.114 244.228 420.114 236.438V236.469Z" fill="white"/>
<path d="M451.271 223.477H461.798C468.675 223.477 471.731 227.216 471.731 232.372C471.731 236.033 470.187 239.009 466.85 240.395L472.698 249.446H465.073L460.457 241.299H457.712V249.446H451.271V223.477ZM461.876 235.348C464.464 235.348 465.213 234.086 465.213 232.372C465.213 230.658 464.464 229.428 461.876 229.428H457.696V235.348H461.876Z" fill="white"/>
<path d="M476.02 223.477H495.216V229.428H482.46V233.681H492.908V238.837H482.46V243.48H495.216V249.431H476.02V223.461V223.477Z" fill="white"/>
<path d="M499.084 234.366C499.084 227.293 503.092 222.963 510.483 222.963C517.875 222.963 521.977 227.293 521.977 234.366V249.446H515.536V242.062H505.369V249.446H499.084V234.366ZM515.536 236.5V234.351C515.536 230.783 513.992 228.914 510.452 228.914C506.912 228.914 505.369 230.783 505.369 234.351V236.5H515.536Z" fill="white"/>
<path d="M531.38 229.443H524.3V223.492H544.931V229.443H537.82V249.462H531.38V229.443Z" fill="white"/>
<path d="M548.674 223.477H555.114V249.446H548.674V223.477Z" fill="white"/>
<path d="M559.84 233.883C559.84 227.169 563.816 222.963 570.974 222.963C578.132 222.963 582.109 227.169 582.109 233.883V249.446H575.668V233.883C575.668 230.705 574.156 228.914 570.974 228.914C567.793 228.914 566.28 230.705 566.28 233.883V249.446H559.84V233.883Z" fill="white"/>
<path d="M585.508 236.469C585.508 228.696 591.231 222.963 599.34 222.963C605.812 222.963 610.833 226.624 612.533 232.092H605.453C604.221 230.113 602.069 228.914 599.324 228.914C594.911 228.914 592.011 232.092 592.011 236.454C592.011 240.816 594.911 243.994 599.324 243.994C602.584 243.994 604.892 242.685 606.077 240.146H597.734V234.989H613.11V237.809C612.471 244.882 606.95 249.961 599.324 249.961C591.215 249.961 585.492 244.243 585.492 236.454L585.508 236.469Z" fill="white"/>
<path d="M341.736 270.493C341.736 262.719 347.459 256.987 355.569 256.987C363.678 256.987 369.401 262.704 369.401 270.493C369.401 278.283 363.678 284 355.569 284C347.459 284 341.736 278.283 341.736 270.493ZM362.882 270.493C362.882 266.131 359.982 262.953 355.569 262.953C351.155 262.953 348.255 266.131 348.255 270.493C348.255 274.855 351.155 278.033 355.569 278.033C359.982 278.033 362.882 274.855 362.882 270.493Z" fill="white"/>
<path d="M372.816 273.079V257.516H379.257V273.079C379.257 276.257 380.723 278.049 383.904 278.049C387.085 278.049 388.629 276.304 388.629 273.079V257.516H394.914V273.079C394.914 279.747 390.984 284 383.951 284C376.918 284 372.816 279.794 372.816 273.079Z" fill="white"/>
<path d="M399.607 257.516H410.134C417.011 257.516 420.067 261.255 420.067 266.412C420.067 270.073 418.523 273.048 415.186 274.435L421.034 283.486H413.408L408.793 275.338H406.048V283.486H399.607V257.516ZM410.212 269.387C412.8 269.387 413.549 268.125 413.549 266.412C413.549 264.698 412.8 263.467 410.212 263.467H406.032V269.387H410.212Z" fill="white"/>
<path d="M434.336 273.952V257.516H440.776V273.952C440.776 276.974 442.242 278.033 444.192 278.033C446.141 278.033 447.607 276.958 447.607 273.952V257.516H454.047V273.952C454.047 276.974 455.56 278.033 457.462 278.033C459.365 278.033 460.878 276.958 460.878 273.952V257.516H467.318V273.952C467.318 280.9 463.264 284 458.024 284C454.889 284 452.379 282.769 450.835 280.432C449.291 282.769 446.78 284 443.646 284C438.406 284 434.352 280.9 434.352 273.952H434.336Z" fill="white"/>
<path d="M470.733 270.493C470.733 262.719 476.457 256.987 484.566 256.987C492.675 256.987 498.398 262.704 498.398 270.493C498.398 278.283 492.675 284 484.566 284C476.457 284 470.733 278.283 470.733 270.493ZM491.879 270.493C491.879 266.131 488.979 262.953 484.566 262.953C480.152 262.953 477.252 266.131 477.252 270.493C477.252 274.855 480.152 278.033 484.566 278.033C488.979 278.033 491.879 274.855 491.879 270.493Z" fill="white"/>
<path d="M502.405 257.516H512.932C519.809 257.516 522.865 261.255 522.865 266.412C522.865 270.073 521.321 273.048 517.984 274.435L523.832 283.486H516.206L511.59 275.338H508.846V283.486H502.405V257.516ZM513.025 269.387C515.614 269.387 516.362 268.125 516.362 266.412C516.362 264.698 515.614 263.467 513.025 263.467H508.846V269.387H513.025Z" fill="white"/>
<path d="M527.17 257.516H533.61V277.519H545.899V283.47H527.186V257.501L527.17 257.516Z" fill="white"/>
<path d="M549.579 257.516H558.764C567.903 257.516 572.674 262.719 572.674 270.493C572.674 278.267 567.903 283.47 558.764 283.47H549.579V257.501V257.516ZM558.764 277.519C563.973 277.519 566.156 274.824 566.156 270.493C566.156 266.162 563.973 263.467 558.764 263.467H556.02V277.519H558.764Z" fill="white"/>
<path d="M592.744 263.467H585.664V257.516H606.295V263.467H599.184V283.486H592.744V263.467Z" fill="white"/>
<path d="M607.527 270.493C607.527 262.719 613.251 256.987 621.36 256.987C629.469 256.987 635.192 262.704 635.192 270.493C635.192 278.283 629.469 284 621.36 284C613.251 284 607.527 278.283 607.527 270.493ZM628.673 270.493C628.673 266.131 625.773 262.953 621.36 262.953C616.946 262.953 614.046 266.131 614.046 270.493C614.046 274.855 616.946 278.033 621.36 278.033C625.773 278.033 628.673 274.855 628.673 270.493Z" fill="white"/>
<path d="M639.2 257.516H648.385C657.524 257.516 662.296 262.719 662.296 270.493C662.296 278.267 657.524 283.47 648.385 283.47H639.2V257.501V257.516ZM648.385 277.519C653.594 277.519 655.777 274.824 655.777 270.493C655.777 266.162 653.594 263.467 648.385 263.467H645.641V277.519H648.385Z" fill="white"/>
<path d="M665.679 268.39C665.679 261.317 669.686 256.987 677.078 256.987C684.47 256.987 688.571 261.317 688.571 268.39V283.47H682.131V276.086H671.963V283.47H665.679V268.39ZM682.131 270.54V268.39C682.131 264.823 680.571 262.953 677.047 262.953C673.523 262.953 671.963 264.823 671.963 268.39V270.54H682.131Z" fill="white"/>
<path d="M698.381 272.721L688.884 257.516H696.478L701.609 266.645L706.739 257.516H714.178L704.837 272.518V283.47H698.396V272.705L698.381 272.721Z" fill="white"/>
<path d="M0 89.858H21.8634V123.15H54.9235V89.858H76.7869V281.554H54.9235V143.371H21.8634V216.825H0V89.858Z" fill="white"/>
<path d="M92.834 246.237V89.858H114.697V246.237C114.697 257.018 119.688 263.093 130.479 263.093C141.27 263.093 146.541 257.158 146.541 246.237V89.858H167.859V246.237C167.859 268.889 154.494 283.315 130.619 283.315C106.744 283.315 92.834 269.029 92.834 246.237Z" fill="white"/>
<path d="M181.753 122.215C181.753 98.6288 195.523 88.1132 213.332 88.1132C223.998 88.1132 232.497 92.2883 237.752 100.249C243.008 92.2883 251.522 88.1132 262.173 88.1132C279.982 88.1132 293.752 98.6288 293.752 122.215V281.57H271.889V122.215C271.889 111.964 266.898 108.334 260.286 108.334C253.674 108.334 248.684 111.98 248.684 122.215V281.57H226.821V122.215C226.821 111.964 221.69 108.334 215.219 108.334C208.747 108.334 203.616 111.98 203.616 122.215V281.57H181.753V122.215Z" fill="white"/>
<path d="M307.662 126.795C307.662 102.804 321.292 88.0977 346.399 88.0977C371.506 88.0977 385.4 102.788 385.4 126.795V201.028H363.537V175.946H328.995V281.554H307.678V126.795H307.662ZM363.521 157.08V126.795C363.521 114.659 358.266 108.319 346.243 108.319C334.219 108.319 328.964 114.659 328.964 126.795V157.08H363.506H363.521Z" fill="white"/>
<path d="M399.404 125.175C399.404 102.399 412.893 88.0977 437.19 88.0977C461.486 88.0977 474.975 102.383 474.975 125.175V201.028H453.111V125.175C453.111 114.395 447.981 108.319 437.19 108.319C426.398 108.319 421.268 114.379 421.268 125.175V201.028H399.404V125.175Z" fill="white"/>
<path d="M511.9 90.858V200.028H492.037V90.858H511.9Z" fill="white" stroke="white" stroke-width="2"/>
<path d="M549.594 110.079H525.578V89.858H595.613V110.079H571.457V201.028H549.594V110.079Z" fill="white"/>
<path d="M632.587 141.486L600.338 89.858H626.115L643.519 120.86L660.922 89.858H686.154L654.435 140.816V201.028H632.572V141.486H632.587Z" fill="url(#paint0_linear_503_49731)"/>
<path d="M712.165 147.266C712.945 145.832 713.725 144.041 714.505 142.966C715.347 141.829 716.423 141.112 717.624 141.112C719.542 141.112 721.522 142.608 721.522 144.524C721.522 146.611 719.245 150.506 717.093 152.547L720.68 156.847C721.226 157.501 721.522 158.342 721.522 159.246C721.522 161.1 719.838 163.016 717.031 163.016C715.659 163.016 714.941 162.299 714.099 161.349L711.339 158.171C707.44 161.941 702.84 163.374 697.444 163.374C688.041 163.374 684.033 157.22 684.033 151.472C684.033 145.069 688.166 140.878 693.437 138.308C691.285 135.862 689.304 133.338 689.304 129.755C689.304 122.869 694.871 119.115 701.281 119.115C710.746 119.115 713.678 125.035 713.678 129.521C713.678 134.242 710.497 138.199 706.193 140.286L712.181 147.281L712.165 147.266ZM698.692 143.62C695.214 145.536 692.766 147.686 692.766 150.74C692.766 154.151 694.98 156.551 698.63 156.551C702.279 156.551 704.743 154.51 706.536 152.905L698.692 143.636V143.62ZM701.203 135.363C703.183 134.164 706.115 132.497 706.115 129.148C706.115 126.998 704.197 125.191 701.624 125.191C699.051 125.191 697.195 126.873 697.195 129.023C697.195 132.014 698.988 133.51 701.203 135.363Z" fill="white"/>
<path d="M960.757 160.959C960.757 160.959 953.49 152.656 939.658 133.743C925.81 114.831 934.044 108.88 937.459 100.779C952.85 50.5062 914.27 10.0015 867.003 1.46439C825.647 -3.75448 795.955 5.68623 775.23 18.7879C739.909 39.2428 724.704 82.2868 724.704 82.2868L752.041 82.5672L752.54 82.3647C752.54 82.3647 763.456 56.5975 775.729 47.8578C796.735 31.0484 834.629 21.2026 868.874 31.874C903.104 42.5299 898.364 73.0798 893.264 77.8468C882.426 87.0071 886.403 100.233 886.403 100.233C886.403 100.233 900.89 149.821 907.439 187.225C913.989 224.614 851.799 230.456 838.465 233.12C828.922 235.067 820.875 236.625 821.436 243.885C821.998 251.129 830.138 251.923 830.138 251.923C830.138 251.923 875.642 257.454 901.311 258.186C926.979 258.918 931.159 240.13 931.174 236.781C931.174 233.431 931.424 230.658 933.576 227.293C938.394 218.787 926.371 216.591 924.375 214.924C922.379 213.257 921.521 209.362 927.51 209.503C944.18 209.845 942.854 196.603 939.923 191.852C935.244 182.022 943.416 180.76 957.825 175.743C969.77 172.643 960.788 160.959 960.788 160.959H960.757Z" fill="url(#paint1_linear_503_49731)"/>
<path d="M22.5491 281.149L0.295898 281.087L21.8786 216.809L44.1162 216.856L22.5491 281.149Z" fill="url(#paint2_linear_503_49731)"/>
</g>
<defs>
<linearGradient id="paint0_linear_503_49731" x1="643.246" y1="89.858" x2="643.246" y2="201.028" gradientUnits="userSpaceOnUse">
<stop stop-color="white"/>
</linearGradient>
<linearGradient id="paint1_linear_503_49731" x1="724.689" y1="129.101" x2="964" y2="129.101" gradientUnits="userSpaceOnUse">
<stop offset="0.04" stop-color="#FAD208"/>
<stop offset="1" stop-color="#E82537"/>
</linearGradient>
<linearGradient id="paint2_linear_503_49731" x1="0.295898" y1="248.979" x2="44.1162" y2="248.979" gradientUnits="userSpaceOnUse">
<stop offset="0.04" stop-color="#FAD208"/>
<stop offset="1" stop-color="#E82537"/>
</linearGradient>
<clipPath id="clip0_503_49731">
<rect width="964" height="284" fill="white"/>
</clipPath>
</defs>
</svg>
