<svg width="964" height="284" viewBox="0 0 964 284" fill="none" xmlns="http://www.w3.org/2000/svg">
<g clip-path="url(#clip0_626_36695)">
<path d="M355.568 223.713C361.842 223.713 366.58 227.283 368.124 232.572H362.785C361.542 229.883 358.93 228.164 355.568 228.164C353.174 228.164 351.144 229.031 349.714 230.531C348.288 232.027 347.505 234.105 347.505 236.454C347.505 238.802 348.288 240.88 349.714 242.377C351.144 243.877 353.174 244.744 355.568 244.744C358.934 244.744 361.529 243.021 362.783 240.335H368.126C366.594 245.622 361.844 249.195 355.568 249.195C347.872 249.195 342.502 243.816 342.486 236.469C342.486 229.121 347.862 223.713 355.568 223.713Z" stroke="white" stroke-width="1.5"/>
<path d="M385.416 223.713C393.123 223.713 398.498 229.106 398.498 236.469C398.498 243.832 393.123 249.226 385.416 249.226C377.709 249.226 372.334 243.832 372.334 236.469C372.334 229.121 377.71 223.713 385.416 223.713ZM385.416 228.179C383.021 228.179 380.991 229.046 379.562 230.547C378.136 232.043 377.353 234.121 377.353 236.469C377.353 238.818 378.135 240.896 379.562 242.392C380.991 243.893 383.021 244.759 385.416 244.759C387.811 244.759 389.842 243.893 391.271 242.392C392.697 240.896 393.48 238.818 393.48 236.469C393.48 234.121 392.697 232.043 391.271 230.547C389.842 229.046 387.811 228.179 385.416 228.179Z" stroke="white" stroke-width="1.5"/>
<path d="M402.867 236.603L402.863 236.563C402.809 236.037 402.771 235.629 402.746 235.337C402.734 235.191 402.724 235.075 402.719 234.989C402.716 234.947 402.714 234.913 402.713 234.888C402.712 234.875 402.712 234.865 402.712 234.858C402.712 234.854 402.712 234.851 402.712 234.85C402.712 234.81 402.71 234.768 402.708 234.725H402.712V233.949L402.713 233.95C402.728 233.951 402.74 233.952 402.751 233.953L402.879 234.03L403.123 234.007C403.581 233.964 404.055 233.931 404.545 233.903L404.444 233.964H407.17C407.298 233.964 407.517 233.948 407.728 233.823H410.425L410.48 233.856L410.658 233.964H412.971L413.032 233.953L413.38 233.895C413.506 233.936 413.642 233.964 413.782 233.964H414.406V233.851L414.919 233.95L414.989 233.964H416.298L416.476 233.856L416.531 233.823H417.194C417.303 233.884 417.391 233.956 417.461 234.049V234.18C417.461 234.31 417.476 234.469 417.531 234.632C417.517 234.707 417.505 234.778 417.495 234.846L417.461 234.805V239.431L417.509 239.363C417.458 239.51 417.41 239.624 417.361 239.708C417.35 239.727 417.338 239.741 417.329 239.755C417.038 239.638 416.719 239.599 416.402 239.599H415.425L415.368 239.564L415.19 239.458H410.117C409.795 239.458 409.49 239.443 409.21 239.403L409.14 239.394L409.069 239.396L406.704 239.504C406.224 239.474 405.731 239.442 405.221 239.442H402.982C402.98 239.437 402.978 239.432 402.976 239.428C402.93 239.348 402.88 239.295 402.864 239.277C402.841 239.253 402.82 239.234 402.807 239.222C402.763 239.183 402.712 239.145 402.674 239.117C402.696 238.99 402.716 238.882 402.731 238.795C402.747 238.705 402.759 238.634 402.768 238.585C402.772 238.561 402.776 238.539 402.778 238.521C402.78 238.513 402.781 238.502 402.782 238.491C402.783 238.486 402.784 238.477 402.785 238.467C402.785 238.465 402.789 238.43 402.789 238.386V238.312L402.775 238.238L402.732 238.027C402.816 237.732 402.867 237.463 402.867 237.217V236.603Z" stroke="white" stroke-width="1.5"/>
<path d="M433.946 223.713C440.22 223.713 444.958 227.283 446.502 232.572H441.163C439.92 229.883 437.308 228.164 433.946 228.164C431.552 228.164 429.522 229.031 428.092 230.531C426.666 232.027 425.883 234.105 425.883 236.454C425.883 238.802 426.666 240.88 428.092 242.377C429.522 243.877 431.552 244.744 433.946 244.744C437.312 244.744 439.907 243.021 441.161 240.335H446.504C444.972 245.622 440.222 249.195 433.946 249.195C426.25 249.195 420.879 243.816 420.864 236.469C420.864 229.121 426.24 223.713 433.946 223.713Z" stroke="white" stroke-width="1.5"/>
<path d="M461.798 224.227C465.104 224.227 467.376 225.124 468.82 226.528C470.263 227.932 470.981 229.941 470.981 232.372C470.981 235.805 469.556 238.458 466.562 239.702L465.732 240.047L466.221 240.802L471.32 248.696H465.511L461.109 240.929L460.894 240.549H456.962V248.696H452.021V224.227H461.798ZM456.946 236.098H461.876C463.279 236.098 464.348 235.756 465.055 235.024C465.757 234.295 465.963 233.322 465.963 232.372C465.963 231.422 465.757 230.454 465.051 229.733C464.343 229.01 463.275 228.678 461.876 228.678H456.946V236.098Z" stroke="white" stroke-width="1.5"/>
<path d="M494.466 224.227V228.678H481.71V234.431H492.158V238.087H481.71V244.23H494.466V248.681H476.77V224.227H494.466Z" stroke="white" stroke-width="1.5"/>
<path d="M510.483 223.713C514.033 223.713 516.695 224.749 518.47 226.54C520.246 228.332 521.227 230.973 521.227 234.366V248.696H516.286V241.312H504.618V248.696H499.834V234.366C499.834 230.968 500.795 228.327 502.548 226.537C504.298 224.749 506.934 223.713 510.483 223.713ZM510.452 228.164C508.556 228.164 507.046 228.667 506.027 229.791C505.022 230.899 504.618 232.476 504.618 234.35V237.251H516.286V234.35C516.286 232.476 515.883 230.899 514.877 229.791C513.858 228.667 512.349 228.164 510.452 228.164Z" stroke="white" stroke-width="1.5"/>
<path d="M544.182 224.242V228.693H537.07V248.712H532.13V228.693H525.05V224.242H544.182Z" stroke="white" stroke-width="1.5"/>
<path d="M554.364 224.227V248.696H549.424V224.227H554.364Z" stroke="white" stroke-width="1.5"/>
<path d="M570.975 223.713C574.406 223.713 576.98 224.718 578.695 226.435C580.411 228.153 581.358 230.674 581.358 233.883V248.696H576.418V233.883C576.418 232.188 576.015 230.733 575.066 229.7C574.107 228.655 572.705 228.164 570.975 228.164C569.244 228.164 567.841 228.655 566.882 229.7C565.933 230.733 565.53 232.188 565.53 233.883V248.696H560.59V233.883C560.59 230.674 561.538 228.153 563.254 226.435C564.969 224.718 567.543 223.713 570.975 223.713Z" stroke="white" stroke-width="1.5"/>
<path d="M599.34 223.713C605.112 223.713 609.606 226.752 611.468 231.341H605.854C604.444 229.338 602.142 228.164 599.324 228.164C596.93 228.164 594.899 229.031 593.47 230.531C592.044 232.027 591.261 234.105 591.261 236.454C591.261 238.802 592.044 240.88 593.47 242.377C594.899 243.877 596.93 244.744 599.324 244.744C602.814 244.744 605.424 243.318 606.757 240.464L607.255 239.396H598.483V235.739H612.36V237.767C611.746 244.424 606.568 249.211 599.324 249.211C591.858 249.211 586.58 244.149 586.258 237.138V236.469C586.258 229.121 591.633 223.713 599.34 223.713Z" stroke="white" stroke-width="1.5"/>
<path d="M355.568 257.737C363.275 257.737 368.65 263.13 368.65 270.493C368.65 277.856 363.275 283.25 355.568 283.25C347.861 283.25 342.486 277.856 342.486 270.493C342.486 263.145 347.862 257.737 355.568 257.737ZM355.568 262.203C353.174 262.203 351.144 263.07 349.714 264.57C348.288 266.067 347.505 268.145 347.505 270.493C347.505 272.842 348.288 274.92 349.714 276.416C351.144 277.916 353.174 278.783 355.568 278.783C357.963 278.783 359.994 277.916 361.424 276.416C362.85 274.92 363.633 272.842 363.633 270.493C363.633 268.145 362.85 266.067 361.424 264.57C359.994 263.07 357.963 262.203 355.568 262.203Z" stroke="white" stroke-width="1.5"/>
<path d="M378.507 258.266V273.08C378.507 274.77 378.895 276.224 379.831 277.259C380.779 278.308 382.174 278.799 383.904 278.799C385.629 278.799 387.039 278.323 388.008 277.286C388.968 276.257 389.379 274.8 389.379 273.08V258.266H394.164V273.08C394.164 276.267 393.226 278.79 391.534 280.514C389.844 282.236 387.315 283.25 383.951 283.25C380.585 283.25 378.008 282.246 376.274 280.525C374.542 278.804 373.566 276.283 373.566 273.08V258.266H378.507Z" stroke="white" stroke-width="1.5"/>
<path d="M410.134 258.266C413.44 258.266 415.712 259.163 417.156 260.568C418.599 261.971 419.317 263.98 419.317 266.412C419.317 269.845 417.892 272.498 414.898 273.742L414.068 274.086L414.557 274.841L419.656 282.736H413.847L409.445 274.968L409.229 274.588H405.298V282.736H400.357V258.266H410.134ZM405.282 270.137H410.212C411.615 270.137 412.684 269.795 413.391 269.063C414.093 268.335 414.299 267.362 414.299 266.412C414.299 265.462 414.093 264.494 413.387 263.772C412.679 263.049 411.611 262.717 410.212 262.717H405.282V270.137Z" stroke="white" stroke-width="1.5"/>
<path d="M440.026 258.266V273.952C440.026 275.573 440.419 276.81 441.209 277.642C442.005 278.48 443.085 278.784 444.191 278.784C445.3 278.784 446.38 278.475 447.175 277.635C447.963 276.802 448.356 275.567 448.356 273.952V258.266H453.297V273.952C453.297 275.579 453.705 276.816 454.5 277.645C455.299 278.479 456.376 278.784 457.463 278.784C458.552 278.784 459.628 278.473 460.426 277.638C461.219 276.808 461.628 275.573 461.628 273.952V258.266H466.568V273.952C466.568 277.279 465.601 279.579 464.109 281.047C462.614 282.52 460.498 283.25 458.023 283.25C455.101 283.249 452.845 282.114 451.461 280.019L450.835 279.072L450.209 280.019C448.825 282.114 446.568 283.25 443.646 283.25C441.171 283.25 439.056 282.52 437.561 281.047C436.069 279.579 435.102 277.279 435.102 273.952V273.202H435.086V258.266H440.026Z" stroke="white" stroke-width="1.5"/>
<path d="M484.565 257.737C492.272 257.737 497.647 263.13 497.647 270.493C497.647 277.856 492.272 283.25 484.565 283.25C476.859 283.25 471.483 277.856 471.483 270.493C471.483 263.145 476.859 257.737 484.565 257.737ZM484.565 262.203C482.171 262.203 480.141 263.07 478.711 264.57C477.285 266.067 476.502 268.145 476.502 270.493C476.502 272.842 477.285 274.92 478.711 276.416C480.141 277.916 482.171 278.783 484.565 278.783C486.96 278.783 488.991 277.916 490.421 276.416C491.847 274.92 492.63 272.842 492.63 270.493C492.63 268.145 491.847 266.067 490.421 264.57C488.991 263.07 486.96 262.203 484.565 262.203Z" stroke="white" stroke-width="1.5"/>
<path d="M512.932 258.266C516.238 258.266 518.51 259.163 519.954 260.568C521.397 261.971 522.115 263.98 522.115 266.412C522.115 269.845 520.69 272.498 517.696 273.742L516.866 274.086L517.354 274.841L522.454 282.736H516.644L512.243 274.968L512.027 274.588H508.096V282.736H503.155V258.266H512.932ZM508.096 270.137H513.025C514.429 270.137 515.498 269.795 516.204 269.063C516.906 268.335 517.112 267.362 517.112 266.412C517.112 265.462 516.906 264.494 516.2 263.772C515.493 263.049 514.424 262.717 513.025 262.717H508.096V270.137Z" stroke="white" stroke-width="1.5"/>
<path d="M532.86 258.266V278.269H545.148V282.72H527.936V258.266H532.86Z" stroke="white" stroke-width="1.5"/>
<path d="M558.765 258.266C563.193 258.266 566.463 259.524 568.623 261.627C570.782 263.727 571.925 266.76 571.925 270.493C571.925 274.225 570.782 277.258 568.623 279.359C566.463 281.461 563.193 282.72 558.765 282.72H550.329V258.266H558.765ZM555.27 278.269H558.765C561.491 278.269 563.563 277.562 564.947 276.157C566.33 274.753 566.906 272.775 566.906 270.493C566.906 268.211 566.33 266.233 564.947 264.83C563.563 263.424 561.491 262.717 558.765 262.717H555.27V278.269Z" stroke="white" stroke-width="1.5"/>
<path d="M605.546 258.266V262.717H598.435V282.736H593.494V262.717H586.414V258.266H605.546Z" stroke="white" stroke-width="1.5"/>
<path d="M621.359 257.737C629.066 257.737 634.441 263.13 634.441 270.493C634.441 277.856 629.066 283.25 621.359 283.25C613.653 283.25 608.277 277.856 608.277 270.493C608.277 263.145 613.653 257.737 621.359 257.737ZM621.359 262.203C618.965 262.203 616.935 263.07 615.505 264.57C614.079 266.067 613.296 268.145 613.296 270.493C613.296 272.842 614.079 274.92 615.505 276.416C616.935 277.916 618.965 278.783 621.359 278.783C623.754 278.783 625.785 277.916 627.215 276.416C628.641 274.92 629.424 272.842 629.424 270.493C629.424 268.145 628.641 266.067 627.215 264.57C625.785 263.07 623.754 262.203 621.359 262.203Z" stroke="white" stroke-width="1.5"/>
<path d="M648.386 258.266C652.814 258.266 656.084 259.524 658.244 261.627C660.403 263.727 661.546 266.76 661.546 270.493C661.546 274.225 660.403 277.258 658.244 279.359C656.084 281.461 652.814 282.72 648.386 282.72H639.95V258.266H648.386ZM644.891 278.269H648.386C651.112 278.269 653.184 277.562 654.568 276.157C655.951 274.753 656.527 272.775 656.527 270.493C656.527 268.211 655.951 266.233 654.568 264.83C653.184 263.424 651.112 262.717 648.386 262.717H644.891V278.269Z" stroke="white" stroke-width="1.5"/>
<path d="M677.078 257.737C680.628 257.737 683.29 258.773 685.064 260.564C686.84 262.356 687.821 264.997 687.821 268.39V282.72H682.881V275.336H671.213V282.72H666.429V268.39C666.429 264.992 667.39 262.351 669.143 260.561C670.893 258.773 673.529 257.737 677.078 257.737ZM677.047 262.203C675.157 262.203 673.649 262.707 672.629 263.829C671.621 264.937 671.213 266.514 671.213 268.39V271.29H682.881V268.39C682.881 266.514 682.473 264.937 681.466 263.829C680.445 262.707 678.937 262.203 677.047 262.203Z" stroke="white" stroke-width="1.5"/>
<path d="M696.039 258.266L700.955 267.012L701.608 268.176L702.263 267.012L707.179 258.266H712.827L704.2 272.122L704.087 272.304V282.72H699.146V270.898L698.518 271.525L690.236 258.266H696.039Z" stroke="white" stroke-width="1.5"/>
<path d="M20.3633 91.358V124.65H56.4238V91.358H75.2871V280.054H56.4238V141.871H20.3633V215.325H1.5V91.358H20.3633Z" stroke="white" stroke-width="3"/>
<path d="M113.197 91.358V246.237C113.197 251.831 114.49 256.469 117.43 259.714C120.394 262.988 124.803 264.593 130.479 264.593C136.143 264.593 140.616 263.03 143.652 259.786C146.672 256.56 148.041 251.916 148.041 246.237V91.358H166.358V246.237C166.358 257.27 163.108 266.125 157.122 272.218C151.14 278.307 142.251 281.814 130.619 281.814C118.982 281.814 109.95 278.338 103.831 272.258C97.7121 266.179 94.334 257.326 94.334 246.237V91.358H113.197Z" stroke="white" stroke-width="3"/>
<path d="M262.173 89.6132C270.788 89.6132 278.268 92.1531 283.589 97.3886C288.902 102.616 292.252 110.716 292.252 122.215V280.069H273.389V122.215C273.389 116.867 272.087 112.965 269.656 110.399C267.212 107.82 263.859 106.834 260.286 106.834C256.712 106.834 253.359 107.825 250.916 110.405C248.486 112.973 247.185 116.874 247.185 122.215V280.069H228.32V122.215C228.32 116.856 226.979 112.956 224.531 110.394C222.075 107.824 218.728 106.834 215.219 106.834C211.708 106.834 208.361 107.828 205.905 110.4C203.458 112.963 202.116 116.863 202.116 122.215V280.069H183.253V122.215C183.253 110.716 186.603 102.616 191.916 97.3886C197.237 92.1531 204.717 89.6132 213.332 89.6132C223.573 89.6133 231.564 93.5969 236.501 101.075L237.753 102.972L239.004 101.075C243.941 93.5972 251.947 89.6133 262.173 89.6132Z" stroke="white" stroke-width="3"/>
<path d="M346.398 89.5977C358.66 89.5977 367.987 93.1793 374.249 99.5C380.514 105.823 383.9 115.078 383.9 126.795V199.527H365.037V174.446H327.495V280.054H309.178V125.488C309.417 114.388 312.719 105.586 318.687 99.5C324.882 93.1822 334.138 89.5977 346.398 89.5977ZM346.243 106.818C339.979 106.818 335.183 108.476 331.984 111.998C328.813 115.491 327.464 120.546 327.464 126.795V158.58H365.021V126.795C365.021 120.546 363.673 115.491 360.501 111.998C357.303 108.476 352.507 106.818 346.243 106.818Z" stroke="white" stroke-width="3"/>
<path d="M437.189 89.5977C449.043 89.5977 458.07 93.077 464.132 99.1494C470.195 105.223 473.475 114.074 473.475 125.175V199.527H454.611V125.175C454.611 119.571 453.28 114.933 450.303 111.689C447.304 108.423 442.865 106.818 437.189 106.818C431.516 106.818 427.076 108.419 424.077 111.684C421.099 114.925 419.768 119.564 419.768 125.175V199.527H400.904V125.175C400.904 114.082 404.184 105.231 410.248 99.1553C416.31 93.0808 425.336 89.5977 437.189 89.5977Z" stroke="white" stroke-width="3"/>
<path d="M511.4 91.358V199.528H492.537V91.358H511.4Z" stroke="white" stroke-width="3"/>
<path d="M594.112 91.358V108.579H569.957V199.528H551.094V108.579H527.078V91.358H594.112Z" stroke="white" stroke-width="3"/>
<path d="M625.237 91.358L642.211 121.594L643.519 123.924L644.827 121.594L661.801 91.358H683.453L653.161 140.023L652.935 140.387V199.528H634.071V142.986H635.293L633.859 140.691L603.044 91.358H625.237Z" stroke="white" stroke-width="3"/>
<path d="M701.28 120.615C705.684 120.615 708.356 121.981 709.936 123.663C711.542 125.374 712.178 127.582 712.178 129.521C712.178 133.516 709.476 137.027 705.538 138.937L703.789 139.785L705.054 141.262L710.354 147.454L710.312 147.535L711.105 148.327L711.121 148.342L712.239 147.305L713.483 147.982C713.884 147.246 714.304 146.38 714.67 145.665C714.962 145.094 715.229 144.601 715.477 144.207L715.719 143.846C716.395 142.939 717.071 142.612 717.624 142.612C718.211 142.612 718.85 142.849 719.331 143.251C719.808 143.649 720.022 144.109 720.022 144.524C720.022 145.16 719.622 146.369 718.808 147.817C718.026 149.206 717.006 150.563 716.062 151.459L715.04 152.426L715.941 153.507L719.528 157.807C719.836 158.176 720.022 158.672 720.022 159.246C720.022 160.157 719.128 161.515 717.031 161.515C716.641 161.515 716.403 161.424 716.187 161.283C715.986 161.152 715.783 160.965 715.515 160.677L715.222 160.354L712.472 157.187L711.434 155.993L710.296 157.092C706.736 160.535 702.541 161.874 697.444 161.874C693.088 161.874 690.146 160.459 688.292 158.537C686.418 156.594 685.533 154.009 685.533 151.472C685.533 145.867 689.1 142.091 694.094 139.656L695.862 138.794L694.562 137.317C692.411 134.872 690.804 132.726 690.804 129.755C690.804 126.759 691.997 124.525 693.84 123.012C695.715 121.473 698.354 120.615 701.28 120.615ZM697.968 142.306C694.487 144.224 691.266 146.755 691.266 150.74C691.266 152.773 691.931 154.626 693.26 155.976C694.593 157.331 696.467 158.05 698.63 158.05C702.887 158.05 705.724 155.645 707.536 154.023L708.624 153.05L707.681 151.936L700.192 143.087V141.081L697.968 142.306ZM701.624 123.691C698.413 123.691 695.695 125.867 695.695 129.023C695.695 132.803 698.094 134.717 700.239 136.513L701.062 137.202L701.979 136.646C702.925 136.074 704.329 135.261 705.465 134.12C706.643 132.936 707.615 131.321 707.615 129.147C707.615 126.023 704.872 123.691 701.624 123.691Z" stroke="white" stroke-width="3"/>
</g>
<defs>
<clipPath id="clip0_626_36695">
<rect width="964" height="284" fill="white"/>
</clipPath>
</defs>
</svg>
