<svg width="74" height="74" viewBox="0 0 74 74" fill="none" xmlns="http://www.w3.org/2000/svg">
<g filter="url(#filter0_i_502_38873)">
<path d="M20.7198 33.1963L15.3474 31.3167C14.7702 31.1095 14.1338 31.4203 13.9266 31.9975L7.35535 50.7491C7.14815 51.3263 7.45895 51.9627 8.03615 52.1699L13.4086 54.0495C13.9858 54.2567 14.6222 53.9459 14.8294 53.3687L21.4006 34.6171C21.6078 34.0399 21.297 33.4035 20.7198 33.1963ZM22.4958 35.9787L16.5462 52.9691L19.4026 55.0411C25.5002 61.0351 26.4622 62.3079 32.3969 68.2427C34.8981 70.7439 38.0506 67.9319 37.0738 66.5703L32.2934 62.0119C31.9974 61.7307 31.9974 61.2719 32.2786 60.9759C32.5598 60.6799 33.0333 60.6799 33.3293 60.9611L38.7461 66.1559L39.3382 66.7035L39.9006 67.2067C41.5582 68.7015 45.0214 65.7119 43.4822 64.2023L38.0654 59.0075C37.7694 58.7263 37.7694 58.2527 38.0506 57.9567C38.3318 57.6607 38.8054 57.6607 39.1014 57.9419L44.5182 63.1367C45.6873 64.2467 47.3894 63.0183 47.9814 61.8639C48.3662 61.1387 48.3514 60.4283 47.7742 59.8363L42.3574 54.6415C42.0614 54.3603 42.0614 53.8867 42.3426 53.5907C42.6238 53.2947 43.0974 53.2947 43.3934 53.5759L48.8102 58.7707L48.8546 58.8151C50.4678 60.4283 53.4722 57.1279 52.2734 55.9291L44.7402 48.4551C42.4165 46.1463 40.3741 45.4359 37.8878 47.1231C34.3506 49.5207 31.0798 49.2839 28.9486 48.1295C27.7054 47.4487 26.625 46.3239 26.3734 45.0067C26.1662 43.9115 26.5362 42.8755 27.6462 42.2095L33.8474 38.5243L22.4958 35.9787ZM57.2906 52.4807L51.5038 35.9787C48.0406 36.6003 36.9998 38.0655 36.0526 38.8647C35.9786 38.9387 35.9046 38.9979 35.8158 39.0423L28.3714 43.4675C27.4093 44.0299 27.7498 45.0659 28.3566 45.7911C28.6822 46.1759 29.1114 46.5311 29.6294 46.8123C31.361 47.7447 34.0398 47.9075 37.0294 45.8799C40.1521 43.7635 42.9198 44.5775 45.7466 47.3895L53.0726 54.6711L57.2906 52.4807ZM58.6522 31.3167L53.2798 33.1963C52.7026 33.4035 52.3918 34.0399 52.599 34.6171L58.8742 52.5547C59.111 53.1615 59.1554 53.7239 59.7326 54.0051C59.999 54.1383 60.295 54.1531 60.591 54.0495L65.9634 52.1699C66.5406 51.9627 66.8514 51.3263 66.6442 50.7491L60.073 31.9975C59.8806 31.4203 59.2294 31.1095 58.6522 31.3167ZM40.3741 9.94553L36.9998 4.75073L33.6549 9.93073C33.5513 10.0935 33.4034 10.2267 33.211 10.2711L27.2318 11.8695L31.1242 16.6647C31.2426 16.7979 31.3166 16.9903 31.3018 17.1827L30.9613 23.3691L36.7482 21.1343C36.911 21.0751 37.1033 21.0603 37.281 21.1343L43.053 23.3691L42.7274 17.1827C42.7126 17.0051 42.7717 16.8275 42.8901 16.6795L46.7974 11.8695L40.8181 10.2711C40.6257 10.2119 40.4777 10.1083 40.3741 9.94553ZM60.7834 16.4279L59.2738 14.1043L57.779 16.3983C57.6902 16.5611 57.5274 16.6943 57.335 16.7387L54.6562 17.4491L56.3878 19.5803C56.5062 19.7135 56.5802 19.9059 56.5654 20.0983L56.4174 22.8659L59.0074 21.8743C59.1702 21.8151 59.3626 21.8003 59.5402 21.8743L62.1301 22.8659L61.9822 20.0983C61.9674 19.9207 62.0266 19.7431 62.145 19.5951L63.8914 17.4491L61.2126 16.7387C61.0498 16.6943 60.887 16.5907 60.7834 16.4279ZM16.2354 16.4279L14.7258 14.1043L13.231 16.3983C13.1422 16.5611 12.9794 16.6943 12.787 16.7387L10.1082 17.4491L11.8398 19.5951C11.9582 19.7283 12.0322 19.9207 12.0174 20.1131L11.8694 22.8807L14.4594 21.8891C14.6222 21.8299 14.8146 21.8151 14.9922 21.8891L17.5822 22.8807L17.4342 20.1131C17.4194 19.9355 17.4786 19.7579 17.597 19.6099L19.3434 17.4639L16.6646 16.7535C16.487 16.6943 16.339 16.5907 16.2354 16.4279Z" fill="url(#paint0_linear_502_38873)"/>
</g>
<defs>
<filter id="filter0_i_502_38873" x="0" y="0" width="74" height="78" filterUnits="userSpaceOnUse" color-interpolation-filters="sRGB">
<feFlood flood-opacity="0" result="BackgroundImageFix"/>
<feBlend mode="normal" in="SourceGraphic" in2="BackgroundImageFix" result="shape"/>
<feColorMatrix in="SourceAlpha" type="matrix" values="0 0 0 0 0 0 0 0 0 0 0 0 0 0 0 0 0 0 127 0" result="hardAlpha"/>
<feOffset dy="4"/>
<feGaussianBlur stdDeviation="2"/>
<feComposite in2="hardAlpha" operator="arithmetic" k2="-1" k3="1"/>
<feColorMatrix type="matrix" values="0 0 0 0 0 0 0 0 0 0 0 0 0 0 0 0 0 0 0.25 0"/>
<feBlend mode="normal" in2="shape" result="effect1_innerShadow_502_38873"/>
</filter>
<linearGradient id="paint0_linear_502_38873" x1="36.9998" y1="4.75073" x2="36.9998" y2="69.2432" gradientUnits="userSpaceOnUse">
<stop stop-color="#FAD208"/>
<stop offset="1" stop-color="#EA3B31"/>
</linearGradient>
</defs>
</svg>
