<svg width="63" height="63" viewBox="0 0 63 63" fill="none" xmlns="http://www.w3.org/2000/svg">
<g clip-path="url(#clip0_502_38876)" filter="url(#filter0_i_502_38876)">
<path d="M55.8498 48.4709L52.8328 45.4336C53.6667 44.1248 54.3819 42.7405 54.9673 41.3034C50.2223 43.5173 46.7568 43.1895 41.6254 43.1895C31.5356 52.1224 15.4352 45.0001 15.4352 31.3928C15.4352 20.0302 27.115 12.4422 37.4553 16.9401C41.2015 12.2787 46.9039 9.35156 53.2889 9.35156L50.6621 6.7075C49.9388 5.97883 48.7602 5.98267 48.0436 6.7075L45.039 9.72935C42.4915 8.09033 39.6581 6.90889 36.7083 6.25809V1.96875C36.7083 0.949768 35.8816 0.123047 34.8626 0.123047H27.5255C26.507 0.123047 25.6798 0.949768 25.6798 1.96875V6.25809C22.7305 6.90889 19.8966 8.09033 17.3496 9.72935L14.3446 6.7075C13.6284 5.98315 12.4503 5.97835 11.7265 6.7075L6.53879 11.9283C5.82262 12.6479 5.82262 13.8096 6.53879 14.5291L9.55584 17.5664C7.92066 20.1331 6.74306 22.9901 6.09563 25.9629H1.8457C0.826721 25.9629 0 26.7896 0 27.8086V35.1914C0 36.2104 0.826721 37.0371 1.8457 37.0371H6.09563C6.74306 40.0099 7.92066 42.8669 9.55584 45.4336L6.53879 48.4709C5.82262 49.1904 5.82262 50.3521 6.53879 51.0717L11.7265 56.2925C12.4498 57.0212 13.6279 57.0173 14.3446 56.2925L17.3496 53.2706C19.8966 54.9097 22.7305 56.0911 25.6798 56.7419V61.0312C25.6798 62.0502 26.507 62.877 27.5255 62.877H34.8626C35.8816 62.877 36.7083 62.0502 36.7083 61.0312V56.7419C39.6581 56.0911 42.4915 54.9097 45.039 53.2706L48.0436 56.2925C48.7602 57.0168 49.9383 57.0217 50.6621 56.2925L55.8498 51.0717C56.566 50.3521 56.566 49.1904 55.8498 48.4709Z" fill="url(#paint0_linear_502_38876)"/>
<path d="M63.0003 14.8887V22.9324C63.0003 32.0672 55.5694 39.498 46.4346 39.498H44.0684C44.0684 37.5625 44.1121 36.5334 43.8444 34.9208L53.5997 25.1054C54.3183 24.3815 54.3145 23.2126 53.592 22.494C52.8687 21.7755 51.6997 21.7793 50.9811 22.5027L42.6385 30.8982C41.4964 28.3301 39.7233 26.1056 37.5186 24.421C39.6988 17.8197 45.929 13.043 53.2513 13.043H61.1546C62.1736 13.043 63.0003 13.8697 63.0003 14.8887Z" fill="url(#paint1_linear_502_38876)"/>
<path d="M27.5258 24.7324H23.8574C22.838 24.7324 22.0117 25.5587 22.0117 26.5781V30.2695C22.0117 37.3938 27.7767 43.1895 34.8629 43.1895H36.686V42.1051L29.8853 35.2621C29.1667 34.5392 29.1705 33.3702 29.8934 32.6516C30.6163 31.9335 31.7853 31.9369 32.5034 32.6598L39.8405 40.0426C40.1842 40.3887 40.3774 40.8564 40.3774 41.3438V37.6523C40.3774 30.5281 34.6125 24.7324 27.5258 24.7324Z" fill="url(#paint2_linear_502_38876)"/>
</g>
<defs>
<filter id="filter0_i_502_38876" x="0" y="0" width="63" height="67" filterUnits="userSpaceOnUse" color-interpolation-filters="sRGB">
<feFlood flood-opacity="0" result="BackgroundImageFix"/>
<feBlend mode="normal" in="SourceGraphic" in2="BackgroundImageFix" result="shape"/>
<feColorMatrix in="SourceAlpha" type="matrix" values="0 0 0 0 0 0 0 0 0 0 0 0 0 0 0 0 0 0 127 0" result="hardAlpha"/>
<feOffset dy="4"/>
<feGaussianBlur stdDeviation="2"/>
<feComposite in2="hardAlpha" operator="arithmetic" k2="-1" k3="1"/>
<feColorMatrix type="matrix" values="0 0 0 0 0 0 0 0 0 0 0 0 0 0 0 0 0 0 0.25 0"/>
<feBlend mode="normal" in2="shape" result="effect1_innerShadow_502_38876"/>
</filter>
<linearGradient id="paint0_linear_502_38876" x1="28.1935" y1="0.123047" x2="28.1935" y2="62.877" gradientUnits="userSpaceOnUse">
<stop stop-color="#FAD208"/>
<stop offset="1" stop-color="#EA3B31"/>
</linearGradient>
<linearGradient id="paint1_linear_502_38876" x1="50.2594" y1="13.043" x2="50.2594" y2="39.498" gradientUnits="userSpaceOnUse">
<stop stop-color="#FAD208"/>
<stop offset="1" stop-color="#EA3B31"/>
</linearGradient>
<linearGradient id="paint2_linear_502_38876" x1="31.1946" y1="24.7324" x2="31.1946" y2="43.1895" gradientUnits="userSpaceOnUse">
<stop stop-color="#FAD208"/>
<stop offset="1" stop-color="#EA3B31"/>
</linearGradient>
<clipPath id="clip0_502_38876">
<rect width="63" height="63" fill="white"/>
</clipPath>
</defs>
</svg>
