<svg width="70" height="70" viewBox="0 0 70 70" fill="none" xmlns="http://www.w3.org/2000/svg">
<g filter="url(#filter0_i_502_38867)">
<path fill-rule="evenodd" clip-rule="evenodd" d="M35.4296 10.3703L37.6338 16.176C37.7001 16.3504 37.8543 16.4625 38.0408 16.4715L44.2433 16.7738C44.4376 16.7833 44.5975 16.9056 44.6577 17.0906C44.7177 17.2756 44.6603 17.4686 44.5087 17.5904L39.6684 21.4808C39.523 21.5977 39.464 21.7791 39.513 21.9592L41.1421 27.9515C41.1931 28.1391 41.1263 28.3292 40.9689 28.4435C40.8115 28.5577 40.6103 28.5627 40.4474 28.4562L35.2517 25.055C35.0956 24.9527 34.9049 24.9527 34.7487 25.055L29.5532 28.4562C29.3905 28.5627 29.1891 28.5577 29.0318 28.4435C28.8745 28.3292 28.8076 28.1391 28.8586 27.9515L30.4878 21.959C30.5367 21.779 30.4778 21.5975 30.3323 21.4806L25.4921 17.5903C25.3404 17.4685 25.2829 17.2754 25.343 17.0905C25.4031 16.9055 25.5632 16.7831 25.7574 16.7737L31.96 16.4714C32.1464 16.4624 32.3007 16.3503 32.3668 16.1758L34.571 10.3702C34.64 10.1884 34.8059 10.0741 35.0003 10.0741C35.1947 10.0742 35.3606 10.1885 35.4296 10.3703ZM35.0003 31.8397C39.2384 31.8397 42.6742 35.2754 42.6742 39.5134C42.6742 43.7516 39.2384 47.1873 35.0003 47.1873C30.7622 47.1873 27.3266 43.7516 27.3266 39.5134C27.3264 35.2753 30.7622 31.8397 35.0003 31.8397ZM50.0902 62.0987C49.2754 54.4845 42.8306 48.5544 35.0003 48.5544C27.1699 48.5544 20.7251 54.4847 19.9102 62.0988V65.1665C19.9102 67.4005 21.7323 69.2225 23.9663 69.2225H46.0342C48.2682 69.2225 50.0902 67.4005 50.0902 65.1665V62.0987ZM55.4523 37.8945C58.8022 37.8945 61.518 40.6102 61.518 43.9602C61.518 47.3101 58.8024 50.0257 55.4523 50.0257C52.1024 50.0257 49.3868 47.3101 49.3868 43.9602C49.3867 40.6102 52.1023 37.8945 55.4523 37.8945ZM52.2777 62.0988V61.9821L52.2653 61.866C51.9232 58.6701 50.7228 55.7534 48.9094 53.3335C50.7912 52.1066 53.0383 51.3931 55.4523 51.3931C61.0422 51.3931 65.7389 55.2165 67.0706 60.3909C67.1795 60.8141 67.0946 61.2241 66.8269 61.5693C66.5592 61.9147 66.1833 62.099 65.7463 62.099L52.2777 62.0988ZM4.25403 62.0988C3.81722 62.0988 3.4411 61.9145 3.17354 61.5692C2.90585 61.2238 2.82108 60.8139 2.92991 60.3908C4.26169 55.2165 8.95825 51.3929 14.5483 51.3929C16.9623 51.3929 19.2094 52.1065 21.0911 53.3335C19.2776 55.7534 18.0773 58.6701 17.7352 61.8661L17.7227 61.9822V62.0988H4.25403ZM14.5481 37.8945C17.898 37.8945 20.6138 40.6102 20.6138 43.9602C20.6138 47.3101 17.8982 50.0257 14.5481 50.0257C11.1983 50.0257 8.48261 47.3101 8.48261 43.9602C8.48261 40.6102 11.1983 37.8945 14.5481 37.8945ZM23.4168 8.41784L27.2965 11.9111C27.7448 12.3146 28.4353 12.2782 28.8388 11.8299C29.2423 11.3816 29.2059 10.6911 28.7576 10.2876L24.8779 6.79431C24.4296 6.39085 23.7391 6.42722 23.3356 6.87552C22.9321 7.32382 22.9685 8.01439 23.4168 8.41784ZM45.1223 6.79431L41.22 10.308C40.7717 10.7114 40.7354 11.402 41.1388 11.8503C41.5423 12.2986 42.2329 12.335 42.6812 11.9315L46.5834 8.41784C47.0317 8.01439 47.0681 7.32382 46.6646 6.87552C46.2611 6.42722 45.5706 6.39085 45.1223 6.79431ZM36.0939 5.88526C36.0939 6.48929 35.6042 6.97901 35.0002 6.97901C34.3961 6.97901 33.9064 6.48929 33.9064 5.88526V1.87134C33.9064 1.26731 34.3961 0.777588 35.0002 0.777588C35.6042 0.777588 36.0939 1.26731 36.0939 1.87134V5.88526Z" fill="url(#paint0_linear_502_38867)"/>
</g>
<defs>
<filter id="filter0_i_502_38867" x="0" y="0" width="70" height="74" filterUnits="userSpaceOnUse" color-interpolation-filters="sRGB">
<feFlood flood-opacity="0" result="BackgroundImageFix"/>
<feBlend mode="normal" in="SourceGraphic" in2="BackgroundImageFix" result="shape"/>
<feColorMatrix in="SourceAlpha" type="matrix" values="0 0 0 0 0 0 0 0 0 0 0 0 0 0 0 0 0 0 127 0" result="hardAlpha"/>
<feOffset dy="4"/>
<feGaussianBlur stdDeviation="2"/>
<feComposite in2="hardAlpha" operator="arithmetic" k2="-1" k3="1"/>
<feColorMatrix type="matrix" values="0 0 0 0 0 0 0 0 0 0 0 0 0 0 0 0 0 0 0.25 0"/>
<feBlend mode="normal" in2="shape" result="effect1_innerShadow_502_38867"/>
</filter>
<linearGradient id="paint0_linear_502_38867" x1="35.0003" y1="0.777588" x2="35.0003" y2="69.2225" gradientUnits="userSpaceOnUse">
<stop stop-color="#FAD208"/>
<stop offset="1" stop-color="#EE5C28"/>
</linearGradient>
</defs>
</svg>
