<svg width="61" height="61" viewBox="0 0 61 61" fill="none" xmlns="http://www.w3.org/2000/svg">
<g clip-path="url(#clip0_502_38870)" filter="url(#filter0_i_502_38870)">
<path fill-rule="evenodd" clip-rule="evenodd" d="M21.6374 31.3855C20.1054 31.3858 18.6078 30.9317 17.3339 30.0808C16.0599 29.2299 15.067 28.0203 14.4806 26.605C13.8941 25.1897 13.7406 23.6323 14.0393 22.1298C14.338 20.6272 15.0756 19.247 16.1588 18.1636C17.242 17.0803 18.6221 16.3425 20.1246 16.0435C21.6271 15.7446 23.1845 15.8979 24.5999 16.4841C26.0153 17.0703 27.225 18.0631 28.0761 19.3369C28.9273 20.6107 29.3815 22.1082 29.3815 23.6402C29.379 25.6934 28.5624 27.6618 27.1106 29.1138C25.6589 30.5657 23.6906 31.3827 21.6374 31.3855ZM26.5879 59.4931H16.6927C15.2934 59.492 13.9486 58.9508 12.9386 57.9823C11.9287 57.0139 11.3315 55.6929 11.2718 54.2949H32.003C31.9445 55.6923 31.3486 57.0132 30.3396 57.9817C29.3306 58.9503 27.9865 59.4917 26.5879 59.4931ZM34.9516 50.0203C34.9505 50.7654 34.654 51.4797 34.1271 52.0066C33.6002 52.5335 32.8859 52.83 32.1408 52.8311H11.1342C10.7636 52.8335 10.3962 52.7626 10.0531 52.6224C9.71004 52.4823 9.39808 52.2757 9.13517 52.0145C8.87228 51.7533 8.66363 51.4427 8.52126 51.1005C8.37888 50.7584 8.30558 50.3914 8.30558 50.0208C8.30558 49.6502 8.37888 49.2833 8.52126 48.9412C8.66363 48.599 8.87228 48.2884 9.13517 48.0272C9.39808 47.766 9.71004 47.5594 10.0531 47.4192C10.3962 47.2791 10.7636 47.2082 11.1342 47.2106H32.1406C32.8856 47.2114 33.5999 47.5077 34.1268 48.0344C34.6537 48.5611 34.9502 49.2753 34.9513 50.0203H34.9516ZM11.2664 45.7467H20.9092V32.8178C18.6008 32.6347 16.4461 31.5884 14.8748 29.8874C13.3034 28.1865 12.4308 25.9559 12.4308 23.6402C12.4308 21.3245 13.3034 19.0939 14.8748 17.3929C16.4461 15.692 18.6008 14.6457 20.9092 14.4625V1.50684C9.31584 1.89345 1.20254e-07 11.4455 1.20254e-07 23.1316C-0.000372515 26.6663 0.865283 30.1473 2.52126 33.2701C4.17724 36.3929 6.5731 39.0624 9.49932 41.0452C10.0509 41.4082 10.502 41.9045 10.8108 42.4881C11.1197 43.0718 11.2763 43.7239 11.2662 44.3841V45.7467H11.2664ZM38.4563 26.2289V21.0503L35.4045 20.6756C35.2591 20.6583 35.1222 20.5977 35.0117 20.5015C34.9012 20.4054 34.8222 20.2782 34.785 20.1365C34.4742 18.9757 34.0113 17.8612 33.4083 16.8218C33.3355 16.6953 33.302 16.55 33.3122 16.4044C33.3225 16.2589 33.3759 16.1196 33.4656 16.0046L35.3587 13.5805L31.6989 9.91828L29.2729 11.8115C29.1584 11.9016 29.0195 11.9551 28.8742 11.9651C28.7289 11.9751 28.584 11.9412 28.4583 11.8677C27.4188 11.265 26.3038 10.8031 25.1426 10.4942C25.0013 10.4565 24.8746 10.3775 24.7785 10.2672C24.6825 10.157 24.6215 10.0206 24.6035 9.87551L24.2249 6.82313H22.3716V14.4625C24.6801 14.6457 26.8347 15.692 28.406 17.3929C29.9774 19.0939 30.8501 21.3245 30.8501 23.6402C30.8501 25.9559 29.9774 28.1865 28.406 29.8874C26.8347 31.5884 24.6801 32.6347 22.3716 32.8178V40.4558H24.2245L24.6031 37.4035C24.6211 37.2586 24.6821 37.1223 24.7782 37.0123C24.8743 36.9023 25.001 36.8235 25.1422 36.7862C26.3034 36.4772 27.4184 36.0153 28.4579 35.4126C28.5836 35.3389 28.7286 35.3048 28.8739 35.3148C29.0192 35.3249 29.1581 35.3785 29.2725 35.4687L31.6989 37.3624L35.3587 33.7002L33.4656 31.276C33.3759 31.1607 33.3225 31.0213 33.3122 30.8755C33.302 30.7297 33.3355 30.5842 33.4083 30.4575C34.0118 29.4185 34.4747 28.304 34.785 27.1432C34.8222 27.0016 34.9012 26.8745 35.0118 26.7786C35.1223 26.6826 35.2592 26.6221 35.4045 26.6051L38.4563 26.2292V26.2289ZM48.6726 15.1592H39.529C39.432 15.1579 39.3359 15.1759 39.246 15.2122C39.1561 15.2484 39.0743 15.3021 39.0053 15.3702C38.9364 15.4383 38.8816 15.5194 38.8442 15.6088C38.8069 15.6982 38.7876 15.7942 38.7876 15.8911C38.7876 15.988 38.8069 16.084 38.8442 16.1734C38.8816 16.2628 38.9364 16.3439 39.0053 16.412C39.0743 16.4801 39.1561 16.5338 39.246 16.57C39.3359 16.6063 39.432 16.6243 39.529 16.623H48.7587C49.3955 16.623 49.86 16.2252 50.1407 15.4421L52.0685 10.0745C52.2395 10.0996 52.4121 10.1122 52.5849 10.1121C53.4678 10.1133 54.3214 9.79471 54.9876 9.2152C55.6538 8.6357 56.0875 7.83453 56.2086 6.9599C56.3297 6.08527 56.13 5.19638 55.6463 4.45765C55.1627 3.71893 54.4278 3.18036 53.5778 2.94159C52.7277 2.70281 51.8199 2.77999 51.0223 3.15884C50.2248 3.53768 49.5914 4.19257 49.2394 5.00234C48.8874 5.81211 48.8405 6.72196 49.1076 7.56359C49.3746 8.40522 49.9374 9.12167 50.6918 9.5804L48.7643 14.9482C48.7397 15.021 48.709 15.0916 48.6724 15.1592H48.6726ZM52.5849 37.168C52.4121 37.1682 52.2396 37.1805 52.0685 37.2048L50.1412 31.8381C49.86 31.0537 49.3955 30.6573 48.7591 30.6573H39.529C39.432 30.6561 39.3359 30.6741 39.246 30.7103C39.1561 30.7466 39.0743 30.8003 39.0053 30.8684C38.9364 30.9365 38.8816 31.0176 38.8442 31.107C38.8069 31.1964 38.7876 31.2924 38.7876 31.3893C38.7876 31.4862 38.8069 31.5821 38.8442 31.6716C38.8816 31.761 38.9364 31.8421 39.0053 31.9102C39.0743 31.9783 39.1561 32.032 39.246 32.0682C39.3359 32.1044 39.432 32.1224 39.529 32.1212H48.6726C48.7098 32.1885 48.7405 32.2592 48.7645 32.3322L50.6918 37.7C49.9394 38.1582 49.3784 38.8733 49.1125 39.7132C48.8465 40.553 48.8937 41.4608 49.2452 42.2685C49.5968 43.0763 50.2289 43.7294 51.0247 44.1072C51.8206 44.485 52.7263 44.5618 53.5744 44.3235C54.4225 44.0851 55.1556 43.5478 55.6381 42.8108C56.1207 42.0738 56.3201 41.1869 56.1994 40.3143C56.0787 39.4417 55.6462 38.6422 54.9817 38.0638C54.3172 37.4855 53.4658 37.1672 52.5849 37.168ZM39.919 23.5183V23.7618C39.9193 23.9236 39.9837 24.0787 40.0981 24.1931C40.2125 24.3075 40.3676 24.3719 40.5294 24.3722H53.7778C53.9592 25.2578 54.4629 26.0446 55.1913 26.58C55.9197 27.1155 56.8209 27.3614 57.7203 27.2703C58.6198 27.1791 59.4533 26.7573 60.0595 26.0866C60.6656 25.4159 61.0012 24.5441 61.0012 23.6401C61.0012 22.736 60.6656 21.8642 60.0595 21.1935C59.4533 20.5228 58.6198 20.101 57.7203 20.0099C56.8209 19.9187 55.9197 20.1647 55.1913 20.7001C54.4629 21.2355 53.9592 22.0223 53.7778 22.9079H40.5294C40.3676 22.9082 40.2125 22.9726 40.0981 23.087C39.9837 23.2014 39.9193 23.3565 39.919 23.5183Z" fill="url(#paint0_linear_502_38870)"/>
</g>
<defs>
<filter id="filter0_i_502_38870" x="0" y="0" width="61" height="65" filterUnits="userSpaceOnUse" color-interpolation-filters="sRGB">
<feFlood flood-opacity="0" result="BackgroundImageFix"/>
<feBlend mode="normal" in="SourceGraphic" in2="BackgroundImageFix" result="shape"/>
<feColorMatrix in="SourceAlpha" type="matrix" values="0 0 0 0 0 0 0 0 0 0 0 0 0 0 0 0 0 0 127 0" result="hardAlpha"/>
<feOffset dy="4"/>
<feGaussianBlur stdDeviation="2"/>
<feComposite in2="hardAlpha" operator="arithmetic" k2="-1" k3="1"/>
<feColorMatrix type="matrix" values="0 0 0 0 0 0 0 0 0 0 0 0 0 0 0 0 0 0 0.25 0"/>
<feBlend mode="normal" in2="shape" result="effect1_innerShadow_502_38870"/>
</filter>
<linearGradient id="paint0_linear_502_38870" x1="30.5006" y1="1.50684" x2="30.5006" y2="59.4931" gradientUnits="userSpaceOnUse">
<stop stop-color="#FAD208"/>
<stop offset="1" stop-color="#EA3B31"/>
</linearGradient>
<clipPath id="clip0_502_38870">
<rect width="61" height="61" fill="white"/>
</clipPath>
</defs>
</svg>
